<svg id="Layer_1" data-name="Layer 1" xmlns="http://www.w3.org/2000/svg" viewBox="0 0 308.67 307.6"><defs><style>.cls-1{fill:#3e66b0;}.cls-2{fill:#4870b6;}.cls-3{fill:#3059a4;}.cls-4{fill:#fff;}</style></defs><rect class="cls-1" x="238.37" y="301.87" width="181.02" height="32.43" rx="12.77" transform="translate(-387.29 208.82) rotate(-45)"/><rect class="cls-2" x="355.22" y="166.5" width="146.81" height="97.53" rx="14.17" transform="translate(-285.38 249.24) rotate(-45)"/><rect class="cls-2" x="412.73" y="262.68" width="133.28" height="13.53" rx="6.77" transform="translate(-308.82 300.99) rotate(-45)"/><rect class="cls-2" x="308.17" y="159.23" width="133.28" height="13.53" rx="6.77" transform="translate(-266.3 196.75) rotate(-45)"/><rect class="cls-3" x="339.07" y="165.24" width="99.32" height="17.36" transform="translate(-267.83 208.92) rotate(-45)"/><rect class="cls-3" x="420.6" y="245.57" width="100.51" height="19.28" transform="translate(-301.25 290.8) rotate(-45)"/><path class="cls-4" d="M358.33,329.8" transform="translate(-258.7 -116.89)"/><path class="cls-2" d="M434.57,420.62q0-32.56-.11-65.12a7.09,7.09,0,0,1,6.06-6.11l120.23-.16a7,7,0,0,1,.62,13.76l-.15,48.13a6.61,6.61,0,0,1,.19,13.17c-67.88.2-117.42.25-120.83.17A6.8,6.8,0,0,1,436.2,423,5.92,5.92,0,0,1,434.57,420.62Z" transform="translate(-258.7 -116.89)"/><rect class="cls-3" x="190.82" y="246.09" width="112.09" height="47.74"/></svg>