<svg xmlns="http://www.w3.org/2000/svg" viewBox="0 0 241.29 301.96"><defs><style>.cls-1{fill:#4870b6;}.cls-2{fill:#fff;}</style></defs><g id="Layer_2" data-name="Layer 2"><g id="Layer_1-2" data-name="Layer 1"><rect class="cls-1" width="197.39" height="301.96" rx="23.53"/><rect class="cls-2" x="48.22" y="21.82" width="102.51" height="22.21" rx="6.64"/><rect class="cls-2" x="23.97" y="60.24" width="150.51" height="13.28" rx="6.64"/><rect class="cls-2" x="24.22" y="86.67" width="150.51" height="13.28" rx="6.64"/><rect class="cls-2" x="24.22" y="112.07" width="125.74" height="13.28" rx="6.64"/><rect class="cls-2" x="24.22" y="138.75" width="81.19" height="13.28" rx="6.64"/><rect class="cls-2" x="24.22" y="245.65" width="81.19" height="13.28" rx="6.64"/><path class="cls-1" d="M241.29,25.16v7.26h-.17V74.89h-4.68V32.42h-4.68V239a6.62,6.62,0,0,1-4.43,6.25v2.52a5.07,5.07,0,0,1-10.13,0v-2.63a6.64,6.64,0,0,1-4.1-6.14V12.91a6.63,6.63,0,0,1,6.63-6.64h5.39a6.64,6.64,0,0,1,6.64,6.64V23.16h7.53A1.86,1.86,0,0,1,241.29,25.16Z"/></g></g></svg>