<svg xmlns="http://www.w3.org/2000/svg" viewBox="0 0 329.42 264.52"><defs><style>.cls-1{fill:#4870b6;}.cls-2,.cls-3,.cls-4{isolation:isolate;}.cls-2{font-size:63.87px;}.cls-2,.cls-4{fill:#fff;font-family:ArialMT, Arial;}.cls-4{font-size:41.16px;}.cls-5{letter-spacing:-0.07em;}.cls-6{letter-spacing:-0.02em;}.cls-7{letter-spacing:-0.02em;}</style></defs><g id="Layer_2" data-name="Layer 2"><g id="Layer_1-2" data-name="Layer 1"><path class="cls-1" d="M299.22,115.7H189.72a30.17,30.17,0,0,1-30.2-30.2V30.2A30.17,30.17,0,0,1,189.72,0h109.5a30.17,30.17,0,0,1,30.2,30.2V85.5A30.11,30.11,0,0,1,299.22,115.7Z"/><polygon class="cls-1" points="182.62 140.6 196.72 115.7 228.52 115.7 182.62 140.6"/><path class="cls-1" d="M163.12,223.4,126,237.6,67.32,260l-6.5,2.5a30.11,30.11,0,0,1-39-17.4L2,193.4a30.11,30.11,0,0,1,17.4-39l102.3-39.1a30.11,30.11,0,0,1,39,17.4l19.8,51.7A30.19,30.19,0,0,1,163.12,223.4Z"/><polyline class="cls-1" points="194.62 258.1 155.42 226.3 126.02 237.6"/><text class="cls-2" transform="translate(182.75 77.68) scale(0.94 1)">SME</text><g class="cls-3"><text class="cls-4" transform="matrix(0.88, -0.35, 0.37, 0.93, 32.56, 203.14)">S<tspan class="cls-5" x="27.45" y="0">T</tspan><tspan x="49.54" y="0">A</tspan><tspan class="cls-6" x="76.99" y="0">RT</tspan></text><text class="cls-4" transform="matrix(0.88, -0.35, 0.37, 0.93, 76.98, 238.71)">U<tspan class="cls-7" x="29.72" y="0">P</tspan></text></g></g></g></svg>