<svg width="100" height="76" viewBox="0 0 100 76" fill="none" xmlns="http://www.w3.org/2000/svg">
<path d="M36.9999 59.5H2.49996C-8.03471e-05 59.5 -0.332119 62.2519 0.499965 63.5L0.500228 63.5004C1.50072 65.0011 5.50039 71.0002 10 73.5C14.5 76 22 76.5 28.4999 74C34.1388 71.8312 37.6582 66.2888 38.9999 64.5C40.5 62.5 39.5 59.5 36.9999 59.5Z" fill="#4870B6"/>
<path d="M96.9084 59H62.4084C59.9084 59 59.5763 61.7519 60.4084 63L60.4087 63.0004C61.4092 64.5011 65.4088 70.5002 69.9084 73C74.4084 75.5 81.9084 76 88.4083 73.5C94.0472 71.3312 97.5667 65.7888 98.9084 64C100.408 62 99.4084 59 96.9084 59Z" fill="#4870B6"/>
<path d="M16 22.375L5 51.375L11 51.375L20 27L29 51.375H34.5L23.5 20.5C26.6667 19.5 31.2291 18.7709 35.5 14.5C39.3023 10.6977 42.6667 10.1667 45 9.5C47.8 13.1 53.5 13.5 56.5 9.5C59.5 10.3333 61.5 11.5 65.5 15.375C68.3744 18.1595 72.5 19 76.5 20.5L65.5 51.375H71L80.5 27.375L90 51.375H95L84.5 21.875H88C91 20.375 91 15.875 86 15.375H79C77 14.7083 72.5 12.775 70.5 10.375C68.5 7.97504 60.3333 4.70832 56.5 3.37496C53.5 -1.12496 48 -1.12501 45 3.37496C41.3333 4.37496 38.5 4.75 33 8.875C29 11.875 23.5 15.875 21.5 15.875H12C9.2 18.275 10.8333 20.875 12 21.875L16 22.375Z" fill="#4870B6"/>
</svg>
