<svg width="177" height="177" viewBox="0 0 177 177" fill="none" xmlns="http://www.w3.org/2000/svg">
<path d="M124.751 17.0402L156.28 69.039C165.148 64.1347 176.971 73.9458 169.089 82.7757C169.089 82.7757 150.368 95.5314 133.619 105.343C116.869 115.154 112.928 100.437 118.839 93.5679L107.183 74.9269L30.1637 123.001C-3.33525 143.605 -3.33686 113.19 11.4428 107.303C20.3103 103.379 97.9815 60.2102 97.9815 60.2102L86.3249 41.5679C74.5013 47.4549 68.5896 30.7761 82.3836 23.9083C95.1923 16.0594 114.504 4.87559 116.869 3.30551C130.663 -2.58027 131.648 13.117 124.751 17.0402Z" fill="#4870B6"/>
<path d="M175 175H87.3097V166.17L94.2068 159.302H167.118L175 165.189V175Z" fill="#4870B6"/>
<path d="M86.3249 41.5679L124.751 17.0402M86.3249 41.5679C74.5013 47.4549 68.5896 30.7761 82.3836 23.9083C95.1923 16.0594 114.504 4.87559 116.869 3.30551C130.663 -2.58027 131.648 13.117 124.751 17.0402M86.3249 41.5679L97.9815 60.2102M118.839 93.5679L156.28 69.039M118.839 93.5679C112.928 100.437 116.869 115.154 133.619 105.343C150.368 95.5314 169.089 82.7757 169.089 82.7757C176.971 73.9458 165.148 64.1347 156.28 69.039M118.839 93.5679L107.183 74.9269M156.28 69.039L124.751 17.0402M97.9815 60.2102C97.9815 60.2102 20.3103 103.379 11.4428 107.303C-3.33686 113.19 -3.33525 143.605 30.1637 123.001L107.183 74.9269M97.9815 60.2102L107.183 74.9269M87.3097 175H175V165.189L167.118 159.302H94.2068L87.3097 166.17V175Z" stroke="white" stroke-width="3"/>
</svg>
